<?xml version="1.0" encoding="UTF-8"?>
<svg width="23px" height="16px" viewBox="0 0 23 16" version="1.1" xmlns="http://www.w3.org/2000/svg" xmlns:xlink="http://www.w3.org/1999/xlink">
    <title>Path</title>
    <g id="Page-1" stroke="none" stroke-width="1" fill="none" fill-rule="evenodd">
        <g id="Properties-3.4" transform="translate(-522.000000, -550.000000)" fill="#E07A5F" fill-rule="nonzero">
            <g id="Group-1" transform="translate(498.000000, 473.000000)">
                <g id="Group-4" transform="translate(20.000000, 74.000000)">
                    <path d="M12.5648933,18.7901869 C12.2325145,18.7901869 11.9136066,18.6578309 11.6784931,18.4227174 L4.38280931,11.1274815 C4.14087529,10.8937652 4.00302265,10.572748 4,10.2363789 C3.99707539,9.90000989 4.12950027,9.57671764 4.36723808,9.33878278 C4.60515055,9.10104497 4.92859955,8.96862009 5.26483424,8.97159372 C5.60123463,8.97456766 5.92225636,9.1124155 6.15593678,9.35435401 L12.5649068,15.763324 L24.4459755,3.87956831 C24.6796917,3.63763428 25.000709,3.49960698 25.337078,3.49675892 C25.6733037,3.49383407 25.9967393,3.62608461 26.2346742,3.86399708 C26.472412,4.10173489 26.6048368,4.4251794 26.6019122,4.76159323 C26.5988893,5.09781897 26.4610414,5.41883622 26.2191029,5.65256142 L13.4513205,18.4252701 C13.2158577,18.6595103 12.8969452,18.7908872 12.5647411,18.7901869 L12.5648933,18.7901869 Z" id="Path"></path>
                </g>
            </g>
        </g>
    </g>
</svg>